<?xml version="1.0" standalone="no"?>
<!DOCTYPE svg PUBLIC "-//W3C//DTD SVG 20010904//EN"
 "http://www.w3.org/TR/2001/REC-SVG-20010904/DTD/svg10.dtd">
<svg version="1.0" xmlns="http://www.w3.org/2000/svg"
 width="288.000000pt" height="288.000000pt" viewBox="0 0 288.000000 288.000000"
 preserveAspectRatio="xMidYMid meet">
<metadata>
Created by potrace 1.15, written by Peter Selinger 2001-2017
</metadata><g><rect x="0" y="0" width="288" height="288" fill="#ffffff" rx="32" />
<g transform="translate(0.000000,288.000000) scale(0.050000,-0.050000)"
fill="#020304" stroke="none">
<path d="M560 4640 l0 -560 560 0 560 0 0 560 0 560 -560 0 -560 0 0 -560z
m960 0 l0 -400 -400 0 -400 0 0 400 0 400 400 0 400 0 0 -400z"/>
<path d="M880 4640 l0 -240 240 0 240 0 0 240 0 240 -240 0 -240 0 0 -240z"/>
<path d="M1840 5120 l0 -80 160 0 160 0 0 80 0 80 -160 0 -160 0 0 -80z"/>
<path d="M2640 5040 l0 -160 -160 0 -160 0 0 -160 0 -160 -80 0 -80 0 0 80 0
80 -80 0 -80 0 0 80 0 80 -80 0 -80 0 0 -240 0 -240 80 0 80 0 0 -80 0 -80
-80 0 -80 0 0 -80 0 -80 80 0 80 0 0 -80 0 -80 -80 0 -80 0 0 -80 0 -80 -80 0
-80 0 0 80 0 80 -80 0 -80 0 0 -80 0 -80 80 0 80 0 0 -80 0 -80 -160 0 -160 0
0 80 0 80 -80 0 -80 0 0 80 0 80 -320 0 -320 0 0 -80 0 -80 80 0 80 0 0 -80 0
-80 80 0 80 0 0 -160 0 -160 -80 0 -80 0 0 80 0 80 -80 0 -80 0 0 -160 0 -160
80 0 80 0 0 -400 0 -400 -80 0 -80 0 0 -80 0 -80 80 0 80 0 0 80 0 80 160 0
160 0 0 -160 0 -160 80 0 80 0 0 -80 0 -80 80 0 80 0 0 80 0 80 -80 0 -80 0 0
160 0 160 80 0 80 0 0 -80 0 -80 320 0 320 0 0 80 0 80 80 0 80 0 0 -80 0 -80
160 0 160 0 0 -80 0 -80 -320 0 -320 0 0 -160 0 -160 160 0 160 0 0 -160 0
-160 80 0 80 0 0 80 0 80 240 0 240 0 0 80 0 80 80 0 80 0 0 80 0 80 400 0
400 0 0 -80 0 -80 -80 0 -80 0 0 -80 0 -80 -80 0 -80 0 0 -80 0 -80 -80 0 -80
0 0 160 0 160 -80 0 -80 0 0 -160 0 -160 -160 0 -160 0 0 -160 0 -160 -80 0
-80 0 0 160 0 160 -80 0 -80 0 0 -80 0 -80 -160 0 -160 0 0 -80 0 -80 -80 0
-80 0 0 80 0 80 -80 0 -80 0 0 -320 0 -320 240 0 240 0 0 80 0 80 80 0 80 0 0
-80 0 -80 80 0 80 0 0 80 0 80 -80 0 -80 0 0 160 0 160 80 0 80 0 0 -80 0 -80
80 0 80 0 0 -160 0 -160 80 0 80 0 0 80 0 80 160 0 160 0 0 160 0 160 80 0 80
0 0 160 0 160 80 0 80 0 0 80 0 80 80 0 80 0 0 -160 0 -160 -80 0 -80 0 0 -80
0 -80 80 0 80 0 0 -240 0 -240 320 0 320 0 0 80 0 80 -160 0 -160 0 0 240 0
240 160 0 160 0 0 -80 0 -80 -80 0 -80 0 0 -80 0 -80 80 0 80 0 0 80 0 80 160
0 160 0 0 -80 0 -80 -80 0 -80 0 0 -80 0 -80 80 0 80 0 0 80 0 80 80 0 80 0 0
-160 0 -160 80 0 80 0 0 160 0 160 80 0 80 0 0 160 0 160 -80 0 -80 0 0 -160
0 -160 -80 0 -80 0 0 80 0 80 -80 0 -80 0 0 80 0 80 80 0 80 0 0 80 0 80 160
0 160 0 0 80 0 80 -80 0 -80 0 0 80 0 80 80 0 80 0 0 80 0 80 -160 0 -160 0 0
240 0 240 80 0 80 0 0 240 0 240 80 0 80 0 0 160 0 160 -160 0 -160 0 0 80 0
80 -160 0 -160 0 0 80 0 80 -80 0 -80 0 0 -80 0 -80 80 0 80 0 0 -80 0 -80 80
0 80 0 0 -160 0 -160 80 0 80 0 0 -160 0 -160 -80 0 -80 0 0 80 0 80 -80 0
-80 0 0 160 0 160 -160 0 -160 0 0 80 0 80 -80 0 -80 0 0 -80 0 -80 -160 0
-160 0 0 80 0 80 80 0 80 0 0 80 0 80 -80 0 -80 0 0 -80 0 -80 -80 0 -80 0 0
-160 0 -160 400 0 400 0 0 -160 0 -160 -80 0 -80 0 0 -160 0 -160 -80 0 -80 0
0 240 0 240 -160 0 -160 0 0 -240 0 -240 -160 0 -160 0 0 160 0 160 80 0 80 0
0 80 0 80 -80 0 -80 0 0 -80 0 -80 -80 0 -80 0 0 160 0 160 -80 0 -80 0 0
-160 0 -160 -80 0 -80 0 0 -320 0 -320 -80 0 -80 0 0 80 0 80 -80 0 -80 0 0
160 0 160 80 0 80 0 0 80 0 80 -160 0 -160 0 0 80 0 80 160 0 160 0 0 80 0 80
80 0 80 0 0 80 0 80 160 0 160 0 0 80 0 80 80 0 80 0 0 80 0 80 80 0 80 0 0
80 0 80 -80 0 -80 0 0 -80 0 -80 -80 0 -80 0 0 -80 0 -80 -160 0 -160 0 0 -80
0 -80 -80 0 -80 0 0 80 0 80 -80 0 -80 0 0 -80 0 -80 -80 0 -80 0 0 160 0 160
320 0 320 0 0 80 0 80 80 0 80 0 0 80 0 80 240 0 240 0 0 -80 0 -80 240 0 240
0 0 80 0 80 160 0 160 0 0 80 0 80 160 0 160 0 0 80 0 80 -240 0 -240 0 0 -80
0 -80 -160 0 -160 0 0 80 0 80 -80 0 -80 0 0 -80 0 -80 -80 0 -80 0 0 80 0 80
-80 0 -80 0 0 160 0 160 80 0 80 0 0 -80 0 -80 80 0 80 0 0 80 0 80 -80 0 -80
0 0 80 0 80 80 0 80 0 0 80 0 80 -80 0 -80 0 0 80 0 80 80 0 80 0 0 240 0 240
-160 0 -160 0 0 -80 0 -80 80 0 80 0 0 -160 0 -160 -80 0 -80 0 0 80 0 80 -80
0 -80 0 0 160 0 160 -80 0 -80 0 0 -80 0 -80 -80 0 -80 0 0 -80 0 -80 -160 0
-160 0 0 160 0 160 -80 0 -80 0 0 -160z m800 -240 l0 -80 80 0 80 0 0 -80 0
-80 -80 0 -80 0 0 80 0 80 -80 0 -80 0 0 -80 0 -80 -320 0 -320 0 0 -80 0 -80
80 0 80 0 0 -160 0 -160 -80 0 -80 0 0 -160 0 -160 160 0 160 0 0 80 0 80 80
0 80 0 0 80 0 80 -80 0 -80 0 0 160 0 160 80 0 80 0 0 -160 0 -160 80 0 80 0
0 160 0 160 80 0 80 0 0 -160 0 -160 -80 0 -80 0 0 -160 0 -160 -80 0 -80 0 0
-160 0 -160 -80 0 -80 0 0 80 0 80 -80 0 -80 0 0 -80 0 -80 -240 0 -240 0 0
-160 0 -160 -80 0 -80 0 0 -160 0 -160 80 0 80 0 0 80 0 80 80 0 80 0 0 -160
0 -160 -240 0 -240 0 0 -160 0 -160 -80 0 -80 0 0 240 0 240 80 0 80 0 0 160
0 160 80 0 80 0 0 80 0 80 -160 0 -160 0 0 -80 0 -80 -80 0 -80 0 0 -80 0 -80
-80 0 -80 0 0 -80 0 -80 80 0 80 0 0 -80 0 -80 -80 0 -80 0 0 -80 0 -80 80 0
80 0 0 -80 0 -80 -160 0 -160 0 0 160 0 160 80 0 80 0 0 80 0 80 -160 0 -160
0 0 -160 0 -160 -160 0 -160 0 0 240 0 240 80 0 80 0 0 80 0 80 -80 0 -80 0 0
80 0 80 80 0 80 0 0 80 0 80 80 0 80 0 0 80 0 80 -80 0 -80 0 0 80 0 80 80 0
80 0 0 -80 0 -80 80 0 80 0 0 -160 0 -160 -80 0 -80 0 0 -80 0 -80 240 0 240
0 0 80 0 80 -80 0 -80 0 0 80 0 80 240 0 240 0 0 80 0 80 -80 0 -80 0 0 80 0
80 80 0 80 0 0 80 0 80 80 0 80 0 0 80 0 80 -80 0 -80 0 0 80 0 80 80 0 80 0
0 80 0 80 160 0 160 0 0 160 0 160 400 0 400 0 0 80 0 80 80 0 80 0 0 -80z
m-640 -1920 l0 -80 -80 0 -80 0 0 80 0 80 80 0 80 0 0 -80z m-320 -480 l0 -80
-80 0 -80 0 0 80 0 80 80 0 80 0 0 -80z m800 -80 l0 -160 -80 0 -80 0 0 160 0
160 80 0 80 0 0 -160z m1280 80 l0 -80 80 0 80 0 0 -160 0 -160 -240 0 -240 0
0 80 0 80 160 0 160 0 0 80 0 80 -80 0 -80 0 0 80 0 80 80 0 80 0 0 -80z
m-2080 -640 l0 -80 -80 0 -80 0 0 80 0 80 80 0 80 0 0 -80z m1920 -160 l0
-240 -240 0 -240 0 0 240 0 240 240 0 240 0 0 -240z m480 -80 l0 -160 -80 0
-80 0 0 -80 0 -80 -80 0 -80 0 0 80 0 80 80 0 80 0 0 160 0 160 80 0 80 0 0
-160z m-1600 -240 l0 -80 -80 0 -80 0 0 80 0 80 80 0 80 0 0 -80z m-960 -320
l0 -80 -80 0 -80 0 0 -80 0 -80 -80 0 -80 0 0 80 0 80 80 0 80 0 0 80 0 80 80
0 80 0 0 -80z m800 0 l0 -80 -160 0 -160 0 0 80 0 80 160 0 160 0 0 -80z"/>
<path d="M2480 4240 l0 -160 -80 0 -80 0 0 80 0 80 -80 0 -80 0 0 -80 0 -80
80 0 80 0 0 -80 0 -80 80 0 80 0 0 80 0 80 80 0 80 0 0 160 0 160 -80 0 -80 0
0 -160z"/>
<path d="M2000 3680 l0 -80 80 0 80 0 0 80 0 80 -80 0 -80 0 0 -80z"/>
<path d="M4080 1600 l0 -80 80 0 80 0 0 80 0 80 -80 0 -80 0 0 -80z"/>
<path d="M4080 4640 l0 -560 560 0 560 0 0 560 0 560 -560 0 -560 0 0 -560z
m960 0 l0 -400 -400 0 -400 0 0 400 0 400 400 0 400 0 0 -400z"/>
<path d="M4400 4640 l0 -240 240 0 240 0 0 240 0 240 -240 0 -240 0 0 -240z"/>
<path d="M5040 3760 l0 -160 -160 0 -160 0 0 -80 0 -80 160 0 160 0 0 -80 0
-80 80 0 80 0 0 80 0 80 -80 0 -80 0 0 80 0 80 80 0 80 0 0 160 0 160 -80 0
-80 0 0 -160z"/>
<path d="M720 1920 l0 -80 80 0 80 0 0 80 0 80 -80 0 -80 0 0 -80z"/>
<path d="M1520 1920 l0 -80 80 0 80 0 0 80 0 80 -80 0 -80 0 0 -80z"/>
<path d="M560 1120 l0 -560 560 0 560 0 0 560 0 560 -560 0 -560 0 0 -560z
m960 0 l0 -400 -400 0 -400 0 0 400 0 400 400 0 400 0 0 -400z"/>
<path d="M880 1120 l0 -240 240 0 240 0 0 240 0 240 -240 0 -240 0 0 -240z"/>
<path d="M3440 640 l0 -80 80 0 80 0 0 80 0 80 -80 0 -80 0 0 -80z"/>
</g>
</g></svg>
